<svg width="320" height="153" viewBox="0 0 320 153" fill="none" xmlns="http://www.w3.org/2000/svg">
<path d="M243.142 7.61902e-06C223.284 -0.00464566 204.2 7.66944 189.917 21.4034C187.507 23.5457 108.939 108.713 108.939 108.7C102.596 114.966 94.5446 119.238 85.7836 120.988C77.0225 122.737 67.9383 121.885 59.6594 118.539C51.3805 115.192 44.2716 109.498 39.216 102.163C34.1603 94.8288 31.3806 86.1774 31.2222 77.2837C31.0638 68.39 33.5336 59.6459 38.3249 52.1377C43.1162 44.6294 50.0177 38.6879 58.1723 35.0512C66.3268 31.4144 75.375 30.2427 84.1928 31.6816C93.0106 33.1205 101.209 37.1066 107.771 43.1447C116.686 51.1636 122.322 62.1706 123.603 74.0636L144.065 51.9912C146.862 48.7067 146.461 44.6315 145.361 41.9552C139.188 29.8193 129.875 19.5422 118.382 12.1834C106.89 4.82459 93.6333 0.650543 79.98 0.0916238C66.3268 -0.467296 52.7708 2.60914 40.71 9.00372C28.6492 15.3983 18.5199 24.8796 11.3667 36.4699C4.21355 48.0603 0.295323 61.3402 0.0160497 74.9404C-0.263223 88.5406 3.10657 101.969 9.77797 113.841C16.4494 125.712 26.1809 135.598 37.9692 142.477C49.7574 149.357 63.1758 152.983 76.8406 152.98C97.4789 152.98 117.574 144.431 130.045 131.576C140.908 120.385 211.302 44.0165 211.302 44.03C217.669 37.8241 225.723 33.6105 234.468 31.9095C243.214 30.2086 252.268 31.0949 260.513 34.4588C268.758 37.8228 275.833 43.5172 280.864 50.8388C285.895 58.1603 288.662 66.7884 288.822 75.6575C288.983 84.5267 286.53 93.2484 281.767 100.746C277.005 108.243 270.141 114.187 262.022 117.845C253.904 121.502 244.888 122.713 236.087 121.326C227.285 119.94 219.084 116.018 212.497 110.045C203.428 102.017 197.69 90.9145 196.4 78.9026L175.973 100.982C173.162 104.246 173.535 108.301 174.615 110.977C180.781 123.12 190.089 133.405 201.58 140.772C213.071 148.139 226.328 152.321 239.984 152.887C253.64 153.452 267.201 150.38 279.266 143.989C291.332 137.597 301.466 128.116 308.624 116.525C315.781 104.934 319.703 91.6516 319.984 78.0485C320.265 64.4453 316.895 51.0138 310.222 39.1395C303.549 27.2652 293.815 17.3781 282.024 10.498C270.232 3.61786 256.81 -0.00606486 243.142 7.61902e-06Z" fill="black"/>
<path d="M230.224 83.8921C231.379 82.0359 232.999 80.5028 234.927 79.4393C236.855 78.3757 239.027 77.8173 241.237 77.8173C243.446 77.8173 245.619 78.3757 247.547 79.4393C249.475 80.5028 251.094 82.0359 252.25 83.8921L259.793 79.3252C257.847 76.1971 255.118 73.6134 251.87 71.821C248.621 70.0286 244.96 69.0874 241.237 69.0874C237.514 69.0874 233.853 70.0286 230.604 71.821C227.355 73.6134 224.627 76.1971 222.68 79.3252L230.224 83.8921Z" fill="black"/>
<path d="M64.4512 83.8921C65.6069 82.0359 67.2261 80.5028 69.1542 79.4393C71.0823 78.3757 73.2549 77.8173 75.4643 77.8173C77.6738 77.8173 79.8464 78.3757 81.7745 79.4393C83.7026 80.5028 85.3218 82.0359 86.4774 83.8921L94.021 79.3252C92.0741 76.1971 89.346 73.6134 86.0971 71.821C82.8483 70.0286 79.1874 69.0874 75.4643 69.0874C71.7412 69.0874 68.0803 70.0286 64.8315 71.821C61.5827 73.6134 58.8545 76.1971 56.9076 79.3252L64.4512 83.8921Z" fill="black"/>
</svg>
